<svg xmlns="http://www.w3.org/2000/svg"  viewBox="0 0 64 64" width="64px" height="64px"><path d="M32,4c-10.513,0-19,6.237-19,21s8.487,35,19,35s19-20.237,19-35S42.513,4,32,4z M17,38c0,0-1.743-1.936-0.5-4.5l1.5,2L17,38	z M16,25l1.324,1.85c0,0-3.824-9.85,4.83-16.85c0,0-2.154,2.055-2.154,6.5c0,4,1.477,4.5,2,4.5c0.61,0,0.569-1.515,0.569-1.515	S25.5,21.5,27.5,30v-4c0,0,2,2,2,6.5L27,32c0,0,0,0,2,3C24.784,35,16,32,16,25z M19.5,41c0,0-2-2.5-0.005-5.5l1,2L19.5,41z M21,50	c0,0-1-2,0.5-4.5L22,49L21,50z M22,37l1.5,2l-1,5C22.5,43.999,20,41,22,37z M23,52.5c0,0.001-1-2,0.5-4.5l0.5,3.5L23,52.5z M25,54.5	c0,0.001-1-2.5,0.5-5.5l0.5,4L25,54.5z M25.5,38l1.5,2.446l-0.897,6.224C26.103,46.669,23,42.5,25.5,38z M27.5,56.5	c0,0-1.97-1.846,0.5-6.5l0.5,4.5L27.5,56.5z M30,57.5c0,0-1.5-2.5,0.359-6.4L31,56L30,57.5z M30.5,48c-0.001-0.001-4-4-1.5-8.5	l2,2.5L30.5,48z M34,57.5L33,56l0.641-4.9C35.5,55,34,57.5,34,57.5z M33.005,42l2-2.5c2.5,4.5-1.504,8.499-1.505,8.5L33.005,42z M36.5,56.5l-1-2L36,50C38.47,54.654,36.5,56.5,36.5,56.5z M39,54.5L38,53l0.5-4C40,52,39,54.501,39,54.5z M37.897,46.67L37,40.446	L38.5,38C41,42.5,37.897,46.669,37.897,46.67z M41,52.5l-1-1l0.5-3.5C42,50.5,41,52.501,41,52.5z M40.5,39l1.5-2	c2,4-0.5,6.999-0.5,7L40.5,39z M43,50l-1-1l0.5-3.5C44,48,43,50,43,50z M44.5,41l-0.995-3.5l1-2C46.5,38.5,44.5,41,44.5,41z M35,35	c2-3,2-3,2-3l-2.5,0.5c0-4.5,2-6.5,2-6.5v4c2-8.5,4.931-10.515,4.931-10.515S41.39,21,42,21c0.523,0,2-0.5,2-4.5	c0-4.445-2.154-6.5-2.154-6.5c8.654,7,4.83,16.85,4.83,16.85L48,25C48,32,39.216,35,35,35z M47,38l-1-2.5l1.5-2	C48.743,36.064,47,38,47,38z"/></svg>